<svg xmlns="http://www.w3.org/2000/svg" viewBox="0 0 512 512">
  <defs>
    <linearGradient id="grad1" x1="0%" y1="0%" x2="100%" y2="100%">
      <stop offset="0%" style="stop-color:#38bdf8;stop-opacity:1" />
      <stop offset="100%" style="stop-color:#0284c7;stop-opacity:1" />
    </linearGradient>
  </defs>
  <rect x="0" y="0" width="512" height="512" rx="128" fill="url(#grad1)" />
  <path d="M256 144c-44.2 0-80 35.8-80 80v48h-16c-17.7 0-32 14.3-32 32v128c0 17.7 14.3 32 32 32h192c17.7 0 32-14.3 32-32V304c0-17.7-14.3-32-32-32h-16v-48c0-44.2-35.8-80-80-80zm-32 80c0-17.7 14.3-32 32-32s32 14.3 32 32v48h-64v-48z" fill="#ffffff"/>
</svg>